<svg viewBox="0 0 300 140" xmlns="http://www.w3.org/2000/svg">
<defs><radialGradient id="g1" cx="50%" cy="40%" r="70%"><stop offset="0%" stop-color="#00FF88" stop-opacity="0.16"/><stop offset="100%" stop-color="#00FF88" stop-opacity="0"/></radialGradient>
<pattern id="hx" width="34" height="60" patternUnits="userSpaceOnUse"><path d="M17 0 L34 10 L34 30 L17 40 L0 30 L0 10 Z" fill="none" stroke="rgba(255,255,255,0.035)" stroke-width="1"/></pattern></defs>
<rect width="300" height="140" fill="#0F1728"/>
<rect width="300" height="140" fill="url(#hx)"/>
<rect width="300" height="140" fill="url(#g1)"/>
<g transform="rotate(-25 84.00000000000001 86.8)">
<rect x="78.00000000000001" y="28.799999999999997" width="12" height="34" rx="5" fill="none" stroke="#00FF88" stroke-width="2"/>
<path d="M 73.00000000000001,62.8 L 95.00000000000001,62.8 L 97.00000000000001,104.8 Q 84.00000000000001,116.8 71.00000000000001,104.8 Z" fill="none" stroke="#00FF88" stroke-width="2"/>
</g>
<circle cx="156.0" cy="47.6" r="13" fill="#FF6B6B" fill-opacity="0.18" stroke="#FF6B6B" stroke-width="2"/>
<path d="M 147.0,41.6 Q 156.0,47.6 147.0,53.6" fill="none" stroke="#FF6B6B" stroke-width="1.2"/>
<path d="M 165.0,41.6 Q 156.0,47.6 165.0,53.6" fill="none" stroke="#FF6B6B" stroke-width="1.2"/>
<path d="M 170.0,45.6 Q 140.0,37.2 102.00000000000001,56.8" fill="none" stroke="#00FF88" stroke-opacity="0.4" stroke-width="1.4" stroke-dasharray="4,4"/>
<rect x="219.0" y="58.8" width="6" height="50" rx="2" fill="none" stroke="#FFB547" stroke-width="1.8"/>
<rect x="231.0" y="58.8" width="6" height="50" rx="2" fill="none" stroke="#FFB547" stroke-width="1.8"/>
<rect x="243.0" y="58.8" width="6" height="50" rx="2" fill="none" stroke="#FFB547" stroke-width="1.8"/>
<rect x="219.0" y="56.0" width="33" height="5" rx="2" fill="#FFB547" fill-opacity="0.8"/>
<rect x="0.5" y="0.5" width="299" height="139" fill="none" stroke="#00FF88" stroke-opacity="0.35" stroke-width="1"/>
</svg>