<svg viewBox="0 0 920 434" xmlns="http://www.w3.org/2000/svg">
<defs>
<radialGradient id="glow" cx="50%" cy="0%" r="80%"><stop offset="0%" stop-color="#00FF88" stop-opacity="0.08"/><stop offset="100%" stop-color="#00FF88" stop-opacity="0"/></radialGradient>
<pattern id="hex" width="56" height="100" patternUnits="userSpaceOnUse"><path d="M28 0 L56 16 L56 50 L28 66 L0 50 L0 16 Z" fill="none" stroke="rgba(255,255,255,0.025)" stroke-width="1"/></pattern>
</defs>
<rect width="920" height="434" fill="#0B1220"/>
<rect width="920" height="434" fill="url(#hex)"/>
<rect width="920" height="434" fill="url(#glow)"/>
<text x="460.0" y="38" text-anchor="middle" font-family="JetBrains Mono, monospace" font-size="20" font-weight="600" fill="#E2EAF5">Beyond Cricket — Player XI Prediction</text>
<rect x="152.0" y="90" width="168" height="92" rx="14" fill="#0F1728" stroke="#00D4FF" stroke-opacity="0.55" stroke-width="1.4"/>
<rect x="152.0" y="90" width="168" height="4" rx="2" fill="#00D4FF"/>
<text x="236.0" y="124" text-anchor="middle" font-family="Inter, sans-serif" font-size="12.5" font-weight="500" fill="#E2EAF5">Cricinfo player</text>
<text x="236.0" y="140" text-anchor="middle" font-family="Inter, sans-serif" font-size="12.5" font-weight="500" fill="#E2EAF5">stats</text>
<line x1="326.0" y1="136.0" x2="370.0" y2="136.0" stroke="#00D4FF" stroke-opacity="0.6" stroke-width="1.6"/>
<path d="M 366.0,131.0 L 374.0,136.0 L 366.0,141.0 Z" fill="#00D4FF" fill-opacity="0.8"/>
<rect x="376.0" y="90" width="168" height="92" rx="14" fill="#0F1728" stroke="#4A9EFF" stroke-opacity="0.55" stroke-width="1.4"/>
<rect x="376.0" y="90" width="168" height="4" rx="2" fill="#4A9EFF"/>
<text x="460.0" y="124" text-anchor="middle" font-family="Inter, sans-serif" font-size="12.5" font-weight="500" fill="#E2EAF5">Feature engineering</text>
<text x="460.0" y="170" text-anchor="middle" font-family="JetBrains Mono, monospace" font-size="9.5" fill="#7A8FA8">runs / balls / 4s / 6s</text>
<line x1="550.0" y1="136.0" x2="594.0" y2="136.0" stroke="#4A9EFF" stroke-opacity="0.6" stroke-width="1.6"/>
<path d="M 590.0,131.0 L 598.0,136.0 L 590.0,141.0 Z" fill="#4A9EFF" fill-opacity="0.8"/>
<rect x="600.0" y="90" width="168" height="92" rx="14" fill="#0F1728" stroke="#00FF88" stroke-opacity="0.55" stroke-width="1.4"/>
<rect x="600.0" y="90" width="168" height="4" rx="2" fill="#00FF88"/>
<text x="684.0" y="124" text-anchor="middle" font-family="Inter, sans-serif" font-size="12.5" font-weight="500" fill="#E2EAF5">Linear regression</text>
<line x1="460.0" y1="188" x2="460.0" y2="246" stroke="#4A9EFF" stroke-opacity="0.5" stroke-width="1.6"/>
<rect x="264.0" y="252" width="168" height="92" rx="14" fill="#0F1728" stroke="#9B7BFF" stroke-opacity="0.55" stroke-width="1.4"/>
<rect x="264.0" y="252" width="168" height="4" rx="2" fill="#9B7BFF"/>
<text x="348.0" y="286" text-anchor="middle" font-family="Inter, sans-serif" font-size="12.5" font-weight="500" fill="#E2EAF5">K-means clustering</text>
<text x="348.0" y="332" text-anchor="middle" font-family="JetBrains Mono, monospace" font-size="9.5" fill="#7A8FA8">elbow method</text>
<line x1="438.0" y1="298.0" x2="482.0" y2="298.0" stroke="#9B7BFF" stroke-opacity="0.6" stroke-width="1.6"/>
<path d="M 478.0,293.0 L 486.0,298.0 L 478.0,303.0 Z" fill="#9B7BFF" fill-opacity="0.8"/>
<rect x="488.0" y="252" width="168" height="92" rx="14" fill="#0F1728" stroke="#FFB547" stroke-opacity="0.55" stroke-width="1.4"/>
<rect x="488.0" y="252" width="168" height="4" rx="2" fill="#FFB547"/>
<text x="572.0" y="286" text-anchor="middle" font-family="Inter, sans-serif" font-size="12.5" font-weight="500" fill="#E2EAF5">Top-11</text>
<text x="572.0" y="302" text-anchor="middle" font-family="Inter, sans-serif" font-size="12.5" font-weight="500" fill="#E2EAF5">recommendation</text>
<rect x="0.5" y="0.5" width="919" height="433" rx="10" fill="none" stroke="rgba(255,255,255,0.12)"/>
</svg>